<svg xmlns='http://www.w3.org/2000/svg' width='1200' height='700' viewBox='0 0 1200 700'>
  <defs>
    <linearGradient id="bg" x1="0%" y1="0%" x2="100%" y2="100%"><stop offset="0%" style="stop-color:#0d0f1c"/><stop offset="100%" style="stop-color:#0a0c16"/></linearGradient>
    <linearGradient id="acc" x1="0%" y1="0%" x2="100%" y2="0%"><stop offset="0%" style="stop-color:#7b6fe8"/><stop offset="100%" style="stop-color:#4f8ef7"/></linearGradient>
  </defs>
  <rect width="100%" height="100%" fill="url(#bg)"/>
  <rect x="60" y="70" width="320" height="170" rx="16" fill="rgba(123,111,232,0.08)" stroke="rgba(123,111,232,0.2)" stroke-width="1"/>
  <text x="88" y="112" fill="#8892a4" font-size="12" font-family="sans-serif">Total Balance</text>
  <text x="88" y="158" fill="#7b6fe8" font-size="36" font-weight="bold" font-family="sans-serif">₹84,320</text>
  <text x="88" y="190" fill="rgba(79,142,247,0.8)" font-size="12" font-family="sans-serif">↑ +12.4% this month</text>
  <rect x="60" y="278" width="320" height="200" rx="16" fill="rgba(79,142,247,0.06)" stroke="rgba(79,142,247,0.15)" stroke-width="1"/>
  <rect x="90" y="420" width="28" height="42" rx="4" fill="url(#acc)" opacity="0.7"/>
  <rect x="135" y="395" width="28" height="67" rx="4" fill="url(#acc)" opacity="0.8"/>
  <rect x="180" y="375" width="28" height="87" rx="4" fill="url(#acc)"/>
  <rect x="225" y="405" width="28" height="57" rx="4" fill="url(#acc)" opacity="0.75"/>
  <rect x="270" y="385" width="28" height="77" rx="4" fill="url(#acc)" opacity="0.85"/>
  <rect x="315" y="415" width="28" height="47" rx="4" fill="url(#acc)" opacity="0.65"/>
  <rect x="430" y="70" width="710" height="440" rx="20" fill="rgba(255,255,255,0.02)" stroke="rgba(123,111,232,0.1)" stroke-width="1"/>
  <text x="460" y="118" fill="#dde4f0" font-size="22" font-weight="bold" font-family="sans-serif">💰 Expensely</text>
  <text x="460" y="148" fill="#8892a4" font-size="13" font-family="sans-serif">Smart Money Management Dashboard</text>
  <rect x="460" y="172" width="650" height="48" rx="10" fill="rgba(123,111,232,0.05)"/>
  <text x="480" y="203" fill="#dde4f0" font-size="13" font-family="sans-serif">🛒 Groceries</text>
  <text x="1000" y="203" fill="#ef4444" font-size="13" font-family="sans-serif" text-anchor="end">-₹1,240</text>
  <rect x="460" y="230" width="650" height="48" rx="10" fill="rgba(79,142,247,0.05)"/>
  <text x="480" y="261" fill="#dde4f0" font-size="13" font-family="sans-serif">💼 Salary</text>
  <text x="1000" y="261" fill="#4ade80" font-size="13" font-family="sans-serif" text-anchor="end">+₹45,000</text>
  <rect x="460" y="288" width="650" height="48" rx="10" fill="rgba(123,111,232,0.05)"/>
  <text x="480" y="319" fill="#dde4f0" font-size="13" font-family="sans-serif">☕ Coffee</text>
  <text x="1000" y="319" fill="#ef4444" font-size="13" font-family="sans-serif" text-anchor="end">-₹180</text>
  <rect x="460" y="418" width="82" height="26" rx="13" fill="rgba(123,111,232,0.12)" stroke="rgba(123,111,232,0.3)" stroke-width="1"/>
  <text x="501" y="436" fill="#7b6fe8" font-size="11" font-family="sans-serif" text-anchor="middle">MongoDB</text>
  <rect x="557" y="418" width="72" height="26" rx="13" fill="rgba(79,142,247,0.12)" stroke="rgba(79,142,247,0.3)" stroke-width="1"/>
  <text x="593" y="436" fill="#4f8ef7" font-size="11" font-family="sans-serif" text-anchor="middle">React.js</text>
  <rect x="644" y="418" width="72" height="26" rx="13" fill="rgba(123,111,232,0.12)" stroke="rgba(123,111,232,0.3)" stroke-width="1"/>
  <text x="680" y="436" fill="#7b6fe8" font-size="11" font-family="sans-serif" text-anchor="middle">Node.js</text>
  <rect x="731" y="418" width="50" height="26" rx="13" fill="rgba(79,142,247,0.12)" stroke="rgba(79,142,247,0.3)" stroke-width="1"/>
  <text x="756" y="436" fill="#4f8ef7" font-size="11" font-family="sans-serif" text-anchor="middle">JWT</text>
</svg>
